<?xml version="1.0" encoding="utf-8"?>
<!-- Generator: Adobe Illustrator 22.0.1, SVG Export Plug-In . SVG Version: 6.00 Build 0)  -->
<svg version="1.1" id="Layer_1" xmlns="http://www.w3.org/2000/svg" xmlns:xlink="http://www.w3.org/1999/xlink" x="0px" y="0px"
	 viewBox="0 0 46.1 45.5" style="enable-background:new 0 0 46.1 45.5;" xml:space="preserve">
<style type="text/css">
	.st0{fill:#F99E49;}
	.st1{fill:none;stroke:#FFFFFF;stroke-width:0.5676;stroke-linecap:round;stroke-linejoin:round;stroke-miterlimit:10;}
	.st2{fill:none;stroke:#FFFFFF;stroke-width:0.5676;stroke-miterlimit:10;}
</style>
<circle class="st0" cx="23.1" cy="22.7" r="21.6"/>
<path class="st1" d="M14.8,17.6c-1.3-0.1-4.7-1.7-4.7-5.5c0-4.1,3.2-5.4,4.4-5.4c0.7,0,16.5,0,17.1,0c1,0,4.5,1,4.5,5.4
	c0,4.4-4.6,5.4-4.6,5.4v4.3l-2.8-4.3l-3.7,0l-1.8,4.3l-1.8-4.3l-3.6,0l-2.9,4.3V17.6z"/>
<circle class="st2" cx="15.3" cy="25.4" r="2.1"/>
<circle class="st2" cx="31" cy="25.4" r="2.1"/>
<path class="st1" d="M20,40.8l0-8.2c0,0,0,4.3,0,5c0,1.5-2,1.5-2,0.1c0-1.4,0-5.8,0-6.3c0-1.1,0.9-2.5,2.4-2.5c1.5-0.1,5.2,0,5.6,0
	c1,0,2.3,1.2,2.3,2.5c0,1.7,0,5.5,0,6.4c0,1.3-2,1.5-2,0c0-1.7,0-5,0-5l0,8.1"/>
<path class="st1" d="M12.6,39.2l0.2-8.5c0,0-0.1,3.8-0.1,4.6c0,1-1.8,1.2-1.8-0.1c0-0.7,0.1-5,0.1-5.7c0-1,0.7-2.1,1.9-2.1
	c0,0,4.3,0,4.8,0c0.9,0,1.5,0.9,1.5,1.6"/>
<path class="st1" d="M33.5,39v-8.6c0,0,0,3.9,0,4.7c0,1.2,1.7,1.2,1.7,0.1c0-1,0-5.5,0-5.9c0-0.8-0.8-1.8-1.9-1.8
	c-1.2,0-2.3,0-2.3,0s-1.5,0-2.4,0c-1.2,0-1.8,0.9-1.8,1.7"/>
<circle class="st2" cx="23.1" cy="26.6" r="2.3"/>
</svg>
