<?xml version="1.0" encoding="utf-8"?>
<!-- Generator: Adobe Illustrator 22.0.1, SVG Export Plug-In . SVG Version: 6.00 Build 0)  -->
<svg version="1.1" id="Layer_1" xmlns="http://www.w3.org/2000/svg" xmlns:xlink="http://www.w3.org/1999/xlink" x="0px" y="0px"
	 viewBox="0 0 46.1 45.5" style="enable-background:new 0 0 46.1 45.5;" xml:space="preserve">
<style type="text/css">
	.st0{fill:#5AA846;}
	.st1{fill:#FFFFFF;}
</style>
<circle class="st0" cx="23.1" cy="22.7" r="21.6"/>
<path class="st1" d="M14.8,34.4C13.3,29.4,7.8,23,7.8,23c0,0,2.1,4,4.4,10c0.6,1.4,1,2.9,1.5,4.3l0.1,0.2h1.8l0-0.3
	C15.4,36.3,15.1,35.3,14.8,34.4"/>
<path class="st1" d="M24.8,25.2c0,0.1,1.1,5.2,1.1,10.4c0,0.5,0,1.1,0,1.7l0,0.3h1.6l0-0.2c0-0.4,0-0.8,0-1.1
	C27.5,32.5,24.8,25.2,24.8,25.2"/>
<path class="st1" d="M38.3,14.7c0,0-3.7,4.4-4.8,10.3c-0.3,1.9-0.5,3.2-0.6,4.5c0,0.1,0,0.3,0,0.4c-0.2-1.6-0.5-3.2-1.1-4.5
	c-2.4-5.2-6.2-8.8-8.2-10c-0.2-0.1-0.3-0.1-0.4,0c-0.2,0.2-0.1,0.3,0.6,1c1.3,1.4,4.6,4.7,6.2,8.5c2.1,4.9,0.5,12.1,0.3,12.2l0,0
	c0.2-1,0-3.2-1.1-7C27.5,23.5,22.1,18,22.1,18c0,0.1,4.9,9.8,5.8,12.1c0.7,1.9,0.6,6,0.5,7.2l0,0.3h1.5h0.4h0.4H32h0.8l0-0.2
	c0-0.4,1.2-5.7,1.5-8.4C35.1,21.4,38,15.5,38.3,14.7L38.3,14.7z"/>
<path class="st1" d="M13.9,25.7c-1-4.4,0.5-7.6,0.5-7.6c0,0-3.9,5.1-0.1,14.1c1.5,3.6,2.7,4.9,3.1,5.3l0.1,0.1h1.1l-0.2-0.4
	C17.9,36,14.9,29.8,13.9,25.7"/>
<path class="st1" d="M22.3,37.6H23l-0.1-0.3c-0.3-0.8-1-2.8-1.7-5.5c0.4,0.7,0.8,1.3,0.9,1.6c0.7,1.2,1.2,3.7,1.2,4l0,0.2h1.8h0.4
	l0-0.2c0-0.1,0.1-2.1-0.6-4.3c-0.7-2.2-3.1-7.8-3.1-7.9l-0.5-1.1l0,1.2c0,0.1,0,1.9,1.4,5.4c0.3,0.8,0.6,1.6,0.9,2.3
	c-0.1-0.1-0.1-0.2-0.2-0.3c-0.7-1.2-2.1-3.1-3.4-5c-0.7-3.2-1.2-6.8-1.1-10c0.1-3.7,0.9-6.5,1.6-8.1c0.7-1.8,2.2-3.5,2.2-3.5
	s-5.5,2-5,15.4c0,1.1,0.2,2.3,0.4,3.7c-1.1-1.4-2.3-2.2-2.3-2.2s1.4,2.3,2.8,4.8c0.3,1.3,0.6,2.6,0.9,3.8c-2-3.1-5-5.6-5-5.6
	c0,0,2.1,3.3,4.5,8.4c0.5,1,1,2.1,1.4,3.2l0.1,0.2h0.8L22.3,37.6L22.3,37.6z"/>
</svg>
