<?xml version="1.0" encoding="utf-8"?>
<!-- Generator: Adobe Illustrator 22.0.1, SVG Export Plug-In . SVG Version: 6.00 Build 0)  -->
<svg version="1.1" id="Layer_1" xmlns="http://www.w3.org/2000/svg" xmlns:xlink="http://www.w3.org/1999/xlink" x="0px" y="0px"
	 viewBox="0 0 46.1 45.5" style="enable-background:new 0 0 46.1 45.5;" xml:space="preserve">
<style type="text/css">
	.st0{fill:#A95A9B;}
	.st1{fill:#FFFFFF;}
</style>
<circle class="st0" cx="23.1" cy="22.7" r="21.6"/>
<circle class="st1" cx="26.7" cy="27.8" r="0.3"/>
<circle class="st1" cx="29.9" cy="27.8" r="0.3"/>
<circle class="st1" cx="33.2" cy="27.8" r="0.3"/>
<circle class="st1" cx="31.6" cy="24.9" r="0.3"/>
<circle class="st1" cx="28.3" cy="24.9" r="0.3"/>
<path class="st1" d="M7.9,30.6c0,0.2,0.2,0.3,0.4,0.3c0.2,0,0.3-0.2,0.2-0.4L8.2,29l2.4,0c0.2,0,0.4-0.2,0.4-0.4V28h3.9
	c0.2,0,0.4-0.2,0.4-0.4v-1.9h6.3v3.5c0,0.2,0.2,0.4,0.4,0.4h14c0.1,0,0.2,0.1,0.3,0l0.7-0.9l2,0l-0.8,1.7c-0.1,0.2-0.2,0.4,0,0.5
	c0.1,0,0.1,0,0.2,0c0.1,0,0.3-0.1,0.4-0.2l1-2.2c0.1-0.1,0-0.3,0-0.4c-0.1-0.1-0.2-0.2-0.3-0.2h-2.6c-0.1,0-0.2,0.1-0.3,0.2L35.8,29
	H34c0.5-0.4,0.8-1,0.8-1.6c0-1.1-0.8-1.9-1.8-2c0.1-0.3,0.2-0.6,0.2-0.9c0-1.1-0.9-2-2-2c-0.7,0-1.3,0.3-1.6,0.8
	c-0.4-0.5-1-0.8-1.6-0.8c-1.1,0-2,0.9-2,2c0,0.3,0.1,0.6,0.2,0.9c-1,0.1-1.8,1-1.8,2c0,0.7,0.3,1.3,0.8,1.6h-2.7v-3.7
	c0-0.2-0.2-0.4-0.4-0.4h-3.8v-2.1c0-0.2-0.2-0.4-0.4-0.4h-1.3c-0.2,0-0.4,0.2-0.4,0.4V25h-1.2c-0.2,0-0.4,0.2-0.4,0.4v2.1h-3.8
	c-0.2,0-0.4,0.2-0.4,0.4v0.5H7.8c-0.1,0-0.2,0.1-0.3,0.1s-0.1,0.2-0.1,0.3L7.9,30.6z M28.2,27.2c0.1-0.7,0.6-1.2,1.3-1.2
	c0.7,0,1.3,0.6,1.3,1.3c0,0.7-0.6,1.3-1.3,1.3c-0.7,0-1.2-0.5-1.3-1.2c0-0.1,0-0.1,0-0.2C28.2,27.3,28.2,27.3,28.2,27.2z M30.7,29
	c0.2-0.1,0.3-0.3,0.4-0.4c0.1,0.2,0.3,0.3,0.4,0.4H30.7z M34.2,27.4c0,0.8-0.6,1.4-1.4,1.4c-0.8,0-1.4-0.6-1.4-1.4
	c0-0.8,0.6-1.4,1.4-1.4C33.5,26,34.2,26.6,34.2,27.4z M31.2,23.1c0.7,0,1.3,0.6,1.3,1.3c0,0.7-0.6,1.3-1.3,1.3s-1.3-0.6-1.3-1.3
	C29.8,23.8,30.4,23.1,31.2,23.1z M27.9,23.1c0.7,0,1.3,0.6,1.3,1.3c0,0.7-0.6,1.3-1.3,1.3c-0.7,0-1.3-0.6-1.3-1.3
	C26.5,23.8,27.2,23.1,27.9,23.1z M26.3,26c0.7,0,1.3,0.5,1.3,1.2c0,0.1,0,0.1,0,0.2c0,0.1,0,0.1,0,0.2c-0.1,0.7-0.7,1.2-1.3,1.2
	c-0.8,0-1.4-0.6-1.4-1.4C24.9,26.6,25.5,26,26.3,26z M27.9,28.6c0.1,0.2,0.3,0.3,0.4,0.4h-0.9C27.6,28.9,27.8,28.8,27.9,28.6z
	 M16.8,23.2h0.7V25h-0.7V23.2z"/>
<path class="st1" d="M18.8,26.3c-0.2,0-0.4,0.2-0.4,0.4v2.8c0,0.2,0.2,0.4,0.4,0.4h1.7c0.2,0,0.4-0.2,0.4-0.4v-2.8
	c0-0.2-0.2-0.4-0.4-0.4H18.8z M20.2,29.2h-1.1l0-2.2h1.1L20.2,29.2z"/>
<path class="st1" d="M12.3,17.2h0.9c0.1,0,0.3,0.1,0.3,0.3v1c0,0.6,0.5,1.1,1.1,1.1h1.3c0.2,0,0.3,0.1,0.3,0.3v1.5
	c0,0.2,0.2,0.4,0.3,0.4c0.2,0,0.3-0.2,0.3-0.4v-1.5c0-0.6-0.4-1-1-1h-1.3c-0.1,0-0.3-0.2-0.3-0.4v-1c0-0.6-0.4-0.9-1-0.9h-0.9
	c-0.1,0-0.4-0.1-0.4-0.3v-1.3c0-0.1,0.2-0.4,0.4-0.4h4.8c0.1,0,0.4,0.2,0.4,0.3v6.5c0,0.2,0.1,0.4,0.3,0.4c0.2,0,0.3-0.2,0.3-0.4
	v-6.5c0-0.6-0.5-1.1-1.1-1.1h-4.8c-0.6,0-1.1,0.5-1.1,1.1v1.3C11.3,16.8,11.8,17.2,12.3,17.2z"/>
<path class="st1" d="M40.5,31.5c-0.6,0-1.2,0.2-1.6,0.6c-0.4-0.4-1-0.6-1.6-0.6c-0.6,0-1.2,0.2-1.6,0.6c-0.4-0.4-1-0.6-1.6-0.6
	c-0.6,0-1.2,0.2-1.6,0.6c-0.4-0.4-1-0.6-1.6-0.6c-0.6,0-1.2,0.2-1.6,0.6c-0.4-0.4-1-0.6-1.6-0.6c-0.6,0-1.2,0.2-1.6,0.6
	c-0.4-0.4-1-0.6-1.6-0.6c-0.6,0-1.2,0.2-1.6,0.6c-0.4-0.4-1-0.6-1.6-0.6c-0.6,0-1.2,0.2-1.6,0.6c-0.4-0.4-1-0.6-1.6-0.6
	c-0.6,0-1.2,0.2-1.6,0.6c-0.4-0.4-1-0.6-1.6-0.6c-0.6,0-1.2,0.2-1.6,0.6c-0.4-0.4-1-0.6-1.6-0.6c-0.6,0-1.2,0.2-1.6,0.6
	c-0.4-0.4-1-0.6-1.6-0.6s-1.2,0.2-1.6,0.6c-0.4-0.4-1-0.6-1.6-0.6c-0.2,0-0.4,0.2-0.4,0.4c0,0.2,0.2,0.3,0.4,0.3
	c0.5,0,1,0.2,1.3,0.6C6.9,32.9,7.1,33,7.2,33s0.2-0.1,0.3-0.2c0.3-0.4,0.8-0.6,1.3-0.6c0.5,0,1,0.2,1.3,0.6c0.1,0.1,0.2,0.2,0.3,0.2
	c0.1,0,0.2-0.1,0.3-0.2c0.3-0.4,0.8-0.6,1.3-0.6c0.5,0,1,0.2,1.3,0.6c0.1,0.1,0.2,0.2,0.3,0.2s0.2-0.1,0.3-0.2
	c0.3-0.4,0.8-0.6,1.3-0.6c0.5,0,1,0.2,1.3,0.6c0.1,0.1,0.2,0.2,0.3,0.2c0.1,0,0.2-0.1,0.3-0.2c0.3-0.4,0.8-0.6,1.3-0.6
	c0.5,0,1,0.2,1.3,0.6c0.1,0.1,0.2,0.2,0.3,0.2l0,0c0.1,0,0.2-0.1,0.3-0.2c0.3-0.4,0.8-0.6,1.3-0.6c0.5,0,1,0.2,1.3,0.6
	c0.1,0.1,0.2,0.2,0.3,0.2c0.1,0,0.2-0.1,0.3-0.2c0.3-0.4,0.8-0.6,1.3-0.6c0.5,0,1,0.2,1.3,0.6c0.1,0.1,0.2,0.2,0.3,0.2
	c0.1,0,0.2-0.1,0.3-0.2c0.3-0.4,0.8-0.6,1.3-0.6s1,0.2,1.3,0.6c0.1,0.1,0.2,0.2,0.3,0.2c0,0,0,0,0,0c0.1,0,0.2-0.1,0.3-0.2
	c0.3-0.4,0.8-0.6,1.3-0.6c0.5,0,1,0.2,1.3,0.6c0.1,0.1,0.2,0.2,0.3,0.2c0.1,0,0.2-0.1,0.3-0.2c0.3-0.4,0.8-0.6,1.3-0.6
	c0.5,0,1,0.2,1.3,0.6c0.1,0.1,0.2,0.2,0.3,0.2c0.1,0,0.2-0.1,0.3-0.2c0.3-0.4,0.8-0.6,1.3-0.6c0.5,0,1,0.2,1.3,0.6
	c0.1,0.1,0.2,0.2,0.3,0.2s0.2-0.1,0.3-0.2c0.3-0.4,0.8-0.6,1.3-0.6c0.2,0,0.4-0.1,0.4-0.3C40.9,31.7,40.7,31.5,40.5,31.5z"/>
</svg>
