<?xml version="1.0" encoding="utf-8"?>
<!-- Generator: Adobe Illustrator 22.0.1, SVG Export Plug-In . SVG Version: 6.00 Build 0)  -->
<svg version="1.1" id="Layer_1" xmlns="http://www.w3.org/2000/svg" xmlns:xlink="http://www.w3.org/1999/xlink" x="0px" y="0px"
	 viewBox="0 0 46.1 45.5" style="enable-background:new 0 0 46.1 45.5;" xml:space="preserve">
<style type="text/css">
	.st0{fill:#0073B2;}
	.st1{fill:none;stroke:#FFFFFF;stroke-width:1.0022;stroke-linecap:round;stroke-miterlimit:10;}
</style>
<circle class="st0" cx="23.1" cy="22.7" r="21.6"/>
<g>
	<path class="st1" d="M38.8,18.4c-2.3,0-2.2-2.1-4.4-2.1c-2.3,0-2,2.1-4.5,2.1c-2.1,0-2.3-2.1-4.5-2.1c-2.2,0-2.1,2.1-4.4,2.1
		c-2.3,0-2.2-2.1-4.5-2.1s-2.2,2.1-4.5,2.1c-2.4,0-2.2-2.1-4.7-2.1"/>
	<path class="st1" d="M17.4,21.4c-0.3-0.1-0.6-0.1-0.9-0.1c-2.3,0-2.2,2.1-4.5,2.1c-2.4,0-2.2-2.1-4.7-2.1"/>
	<path class="st1" d="M38.8,23.4c-2.3,0-2.2-2.1-4.4-2.1c-2.3,0-2,2.1-4.5,2.1c-2.1,0-2.3-2.1-4.5-2.1c-2.2,0-2.1,2.1-4.4,2.1
		c-1.5,0-2-0.8-2.5-1.3"/>
	<path class="st1" d="M30.9,28.3c-0.3,0.1-0.6,0.2-1.1,0.2c-2.1,0-2.3-2.1-4.5-2.1c-2.2,0-2.1,2.1-4.4,2.1c-2.3,0-2.2-2.1-4.5-2.1
		s-2.2,2.1-4.5,2.1c-2.4,0-2.2-2.1-4.7-2.1"/>
	<path class="st1" d="M38.8,28.5c-2.3,0-2.2-2.1-4.4-2.1c-1.3,0-1.8,0.7-2.4,1.3"/>
	<path class="st1" d="M10.6,33.2c-1.1-0.6-1.4-1.8-3.3-1.8"/>
	<path class="st1" d="M38.8,33.6c-2.3,0-2.2-2.1-4.4-2.1c-2.3,0-2,2.1-4.5,2.1c-2.1,0-2.3-2.1-4.5-2.1c-2.2,0-2.1,2.1-4.4,2.1
		c-2.3,0-2.2-2.1-4.5-2.1s-2.2,2.1-4.5,2.1"/>
</g>
</svg>
