<?xml version="1.0" encoding="utf-8"?>
<!-- Generator: Adobe Illustrator 22.0.1, SVG Export Plug-In . SVG Version: 6.00 Build 0)  -->
<svg version="1.1" id="Layer_1" xmlns="http://www.w3.org/2000/svg" xmlns:xlink="http://www.w3.org/1999/xlink" x="0px" y="0px"
	 viewBox="0 0 46.1 45.5" style="enable-background:new 0 0 46.1 45.5;" xml:space="preserve">
<style type="text/css">
	.st0{fill:#9A6D4A;}
	.st1{fill:#FFFFFF;stroke:#FFFFFF;stroke-width:0.1845;stroke-miterlimit:10;}
</style>
<circle class="st0" cx="23.1" cy="22.7" r="21.6"/>
<g>
	<g>
		<path class="st1" d="M18.4,24c-0.3,0-0.7-0.1-0.9-0.4l-1.8-1.8c-0.5-0.5-0.5-1.3,0-1.8l6.1-6.1c0.4-0.4,1.2-0.8,1.9-0.8
			c0.1,0,0.2,0,0.4,0c1,0.3,1.9,1.1,2.1,2.1c0.2,0.8-0.3,1.8-0.8,2.3l-6.1,6.1C19.1,23.9,18.7,24,18.4,24z M23.7,13.4
			c-0.6,0-1.4,0.4-1.7,0.7l-6.1,6.1c-0.3,0.3-0.3,0.9,0,1.3l1.8,1.8c0.3,0.3,1,0.3,1.3,0l6.1-6.1c0.4-0.4,0.9-1.3,0.7-1.9
			c-0.2-0.9-1-1.6-1.9-1.9C23.9,13.4,23.8,13.4,23.7,13.4z"/>
	</g>
	<g>
		<path class="st1" d="M18.5,23c0,0-0.1,0-0.1-0.1L16.5,21c-0.1-0.1-0.1-0.2,0-0.3c0,0,5.4-5.4,5.6-5.6c0.2-0.2,0.7-0.5,1-0.5
			s0.8,0.1,1.2,0.5c0.3,0.3,0.4,0.8,0.4,1.2s-0.3,0.8-0.6,1.1L18.5,23C18.6,22.9,18.5,23,18.5,23z M16.9,20.8l1.6,1.7L24,17
			c0.2-0.2,0.4-0.4,0.4-0.7c0-0.3,0-0.7-0.3-1s-0.7-0.4-1-0.3c-0.3,0-0.5,0.1-0.8,0.4L16.9,20.8z"/>
	</g>
	<g>
		<path class="st1" d="M17.7,27.2c0,0-0.1,0-0.1-0.1l-5.4-5.4c-0.1-0.1-0.1-0.2,0-0.3c0.1-0.1,0.2-0.1,0.3,0l5.4,5.4
			c0.1,0.1,0.1,0.2,0,0.3C17.7,27.2,17.7,27.2,17.7,27.2z"/>
	</g>
	<g>
		<path class="st1" d="M15.3,28.6c0,0-0.1,0-0.1-0.1l-4.4-4.4c-0.1-0.1-0.1-0.2,0-0.3c0.1-0.1,0.2-0.1,0.3,0l4.4,4.4
			c0.1,0.1,0.1,0.2,0,0.3C15.4,28.6,15.4,28.6,15.3,28.6z"/>
	</g>
	<g>
		<g>
			<path class="st1" d="M8.8,31.4c-0.3,0-0.5-0.1-0.7-0.3c-0.2-0.2-0.2-0.5-0.1-0.9c0-0.1,2-7.8,8.8-14.6s14.5-8.8,14.6-8.8
				c0.4-0.1,0.8,0,1,0.3c0.2,0.2,0.2,0.5,0.1,0.9c0,0.1-2,7.8-8.8,14.6S9.2,31.4,9.1,31.4C9,31.3,8.9,31.4,8.8,31.4z M31.7,7.1
				c-0.1,0-0.2,0-0.2,0c-0.1,0-7.7,2-14.4,8.7S8.4,30.1,8.4,30.2c-0.1,0.2,0,0.4,0.1,0.5C8.5,31,8.7,31,8.8,31S9,31,9,31
				c0.1,0,7.7-2,14.4-8.7S32.1,8,32.1,7.9c0.1-0.2,0-0.4-0.1-0.5C32,7.1,31.9,7.1,31.7,7.1z"/>
		</g>
		<g>
			<g>
				<g>
					<path class="st1" d="M30.7,12.3L30.7,12.3l-6.6-2c-0.1,0-0.2-0.1-0.1-0.2c0-0.1,0.1-0.2,0.2-0.1l6.5,2c0.1,0,0.2,0.1,0.1,0.2
						C30.9,12.3,30.8,12.3,30.7,12.3z"/>
				</g>
				<g>
					<path class="st1" d="M31.7,10.1C31.6,10.1,31.6,10.1,31.7,10.1l-4.5-1.3c-0.1,0-0.2-0.1-0.1-0.2c0-0.1,0.1-0.2,0.2-0.1l4.4,1.3
						c0.1,0,0.2,0.1,0.1,0.2C31.8,10,31.7,10.1,31.7,10.1z"/>
				</g>
			</g>
			<g>
				<g>
					<path class="st1" d="M30.7,12.3c-0.1,0-0.2-0.1-0.2-0.1l-1.3-4.4c0-0.1,0-0.2,0.1-0.2s0.2,0,0.2,0.1l1.3,4.4
						C30.9,12.1,30.9,12.2,30.7,12.3C30.8,12.2,30.8,12.3,30.7,12.3z"/>
				</g>
				<g>
					<path class="st1" d="M29.1,15.3c-0.1,0-0.2-0.1-0.2-0.1l-2-6.5c0-0.1,0-0.2,0.1-0.2s0.2,0,0.2,0.1l2,6.5
						C29.3,15.2,29.3,15.3,29.1,15.3C29.2,15.3,29.1,15.3,29.1,15.3z"/>
				</g>
			</g>
		</g>
	</g>
</g>
<g>
	<path class="st1" d="M19.5,32.2c0,0-0.1,0-0.1-0.1c-0.1-0.1-0.1-0.2,0-0.3L33,18.2c0.1-0.1,0.2-0.1,0.3,0s0.1,0.2,0,0.3L19.6,32.1
		L19.5,32.2z"/>
</g>
<g>
	<path class="st1" d="M20.1,32.8c0,0-0.1,0-0.1-0.1c-0.1-0.1-0.1-0.2,0-0.3l13.7-13.7c0.1-0.1,0.2-0.1,0.3,0s0.1,0.2,0,0.3
		L20.2,32.7L20.1,32.8z"/>
</g>
<g>
	<g>
		<path class="st1" d="M34.6,19.6c-0.2,0-0.4-0.1-0.5-0.2L32.7,18c-0.1-0.1-0.2-0.3-0.2-0.5s0.1-0.4,0.2-0.5l4.5-5.3
			c0.3-0.3,0.8-0.3,1,0l2.2,2.2c0.3,0.3,0.3,0.8,0,1l-5.3,4.5C34.9,19.5,34.8,19.6,34.6,19.6z M37.7,11.8c-0.1,0-0.2,0-0.3,0.1
			l-4.5,5.3c-0.1,0.1-0.1,0.2-0.1,0.3c0,0.1,0,0.2,0.1,0.3l1.4,1.4c0.1,0.1,0.4,0.1,0.5,0l5.3-4.5c0.1-0.1,0.1-0.4,0-0.5L37.9,12
			C37.8,11.8,37.8,11.8,37.7,11.8z"/>
	</g>
	<g>
		<path class="st1" d="M34.7,17.5c0,0-0.1,0-0.1-0.1c-0.1-0.1-0.1-0.2,0-0.3l3.2-3.2c0.1-0.1,0.2-0.1,0.3,0s0.1,0.2,0,0.3l-3.2,3.2
			C34.8,17.5,34.7,17.5,34.7,17.5z"/>
	</g>
</g>
<g>
	<g>
		<path class="st1" d="M15.6,39.3c-0.2,0-0.4-0.1-0.5-0.2l-2.2-2.2c-0.1-0.1-0.2-0.3-0.2-0.5s0.1-0.4,0.2-0.5l5.3-4.5
			c0.3-0.3,0.7-0.3,1,0l1.4,1.4c0.3,0.3,0.3,0.8,0,1l-4.5,5.3C16,39.2,15.8,39.3,15.6,39.3z M18.7,31.5c-0.1,0-0.2,0-0.3,0.1
			l-5.3,4.5C13,36.2,13,36.3,13,36.3c0,0.1,0,0.2,0.1,0.3l2.2,2.2c0.1,0.1,0.4,0.1,0.5,0l4.5-5.3c0.2-0.2,0.2-0.4,0-0.5l-1.4-1.4
			C18.9,31.6,18.8,31.5,18.7,31.5z"/>
	</g>
	<g>
		<path class="st1" d="M15.3,36.8c0,0-0.1,0-0.1-0.1c-0.1-0.1-0.1-0.2,0-0.3l3.2-3.2c0.1-0.1,0.2-0.1,0.3,0c0.1,0.1,0.1,0.2,0,0.3
			l-3.2,3.2C15.4,36.8,15.4,36.8,15.3,36.8z"/>
	</g>
</g>
</svg>
